<svg width="45" height="45" viewBox="0 0 45 45" fill="none" xmlns="http://www.w3.org/2000/svg">
<path d="M22.5018 24.375C23.5374 24.375 24.3768 23.5355 24.3768 22.5C24.3768 21.4645 23.5374 20.625 22.5018 20.625C21.4663 20.625 20.6268 21.4645 20.6268 22.5C20.6268 23.5355 21.4663 24.375 22.5018 24.375Z" fill="#737171" stroke="#737171"/>
<path d="M30.0018 24.375C31.0374 24.375 31.8768 23.5355 31.8768 22.5C31.8768 21.4645 31.0374 20.625 30.0018 20.625C28.9663 20.625 28.1268 21.4645 28.1268 22.5C28.1268 23.5355 28.9663 24.375 30.0018 24.375Z" fill="#737171" stroke="#737171"/>
<path d="M15.0018 24.375C16.0374 24.375 16.8768 23.5355 16.8768 22.5C16.8768 21.4645 16.0374 20.625 15.0018 20.625C13.9663 20.625 13.1268 21.4645 13.1268 22.5C13.1268 23.5355 13.9663 24.375 15.0018 24.375Z" fill="#737171" stroke="#737171"/>
<path d="M22.5 41.1225C18.8159 41.1225 15.2145 40.03 12.1514 37.9832C9.08824 35.9363 6.70087 33.0271 5.29121 29.6233C3.88154 26.2196 3.5129 22.4743 4.2319 18.8611C4.9509 15.2478 6.72525 11.929 9.33056 9.32418C11.9359 6.7194 15.2551 4.94572 18.8685 4.22744C22.4819 3.50917 26.2271 3.87857 29.6305 5.28892C33.034 6.69927 35.9427 9.08723 37.989 12.1508C40.0352 15.2144 41.127 18.8159 41.1262 22.5C41.1203 27.4378 39.1558 32.1716 35.6639 35.6628C32.172 39.1541 27.4378 41.1175 22.5 41.1225ZM22.5 5.74688C19.187 5.74688 15.9484 6.72927 13.1937 8.56984C10.439 10.4104 8.29194 13.0265 7.02402 16.0873C5.7561 19.1481 5.42426 22.5161 6.07046 25.7654C6.71666 29.0148 8.31187 31.9996 10.6544 34.3424C12.9969 36.6852 15.9815 38.2807 19.2308 38.9273C22.4801 39.5738 25.8482 39.2424 28.9091 37.9748C31.97 36.7072 34.5863 34.5605 36.4272 31.806C38.2681 29.0515 39.2509 25.813 39.2512 22.5C39.2468 18.0585 37.4805 13.8001 34.3401 10.6594C31.1996 7.51855 26.9415 5.75184 22.5 5.74688Z" fill="#737171" stroke="#737171"/>
</svg>
